Coordinates
version=1
nRows=25
nColumns=38
inDegrees=no

Units are S.I. units (second, meters, Newtons, ...)
If the header above contains a line with 'inDegrees', this indicates whether rotational values are in degrees (yes) or radians (no).

endheader
time	pelvis_tilt	pelvis_list	pelvis_rotation	pelvis_tx	pelvis_ty	pelvis_tz	hip_flexion_r	hip_adduction_r	hip_rotation_r	knee_angle_r	ankle_angle_r	subtalar_angle_r	mtp_angle_r	hip_flexion_l	hip_adduction_l	hip_rotation_l	knee_angle_l	ankle_angle_l	subtalar_angle_l	mtp_angle_l	lumbar_extension	lumbar_bending	lumbar_rotation	arm_flex_r	arm_add_r	arm_rot_r	elbow_flex_r	pro_sup_r	wrist_flex_r	wrist_dev_r	arm_flex_l	arm_add_l	arm_rot_l	elbow_flex_l	pro_sup_l	wrist_flex_l	wrist_dev_l
0.17	-0.2397	0.0060102	0.000648451	1.01902	1.04453	-0.337656	-0.138279	-0.0344454	-0.174889	-0.595513	-0.0606517	0.0915429	0.0289867	0.976969	0.0341595	-0.0860715	-0.794282	0.311305	0.0686156	-0.0460686	0.0593342	0.0329755	0.190634	-0.213245	-0.400328	-0.0126795	2.37785	1.66836	0.0296385	0.0387998	-1.01656	-0.258186	-0.248684	2.09359	1.59324	0.0524674	0.043873
0.18	-0.229012	0.00571999	0.00851686	1.01952	1.04655	-0.33786	-0.140434	-0.0266334	-0.145333	-0.702977	-0.0563885	0.0915429	0.0289867	0.934964	0.0489615	-0.114206	-0.670591	0.34154	0.0686156	-0.0460686	0.0446508	0.0283652	0.18772	-0.238491	-0.398214	-0.0314472	2.35982	1.65912	0.0296385	0.0387998	-1.01878	-0.250878	-0.270462	2.10179	1.5934	0.0524674	0.043873
0.19	-0.219913	0.00547269	0.0162727	1.01999	1.04741	-0.338119	-0.137359	-0.0212123	-0.122395	-0.812378	-0.0516367	0.0915429	0.0289867	0.895954	0.061822	-0.142936	-0.566991	0.364733	0.0686156	-0.0460686	0.0327126	0.0240312	0.182883	-0.265132	-0.395867	-0.053069	2.33344	1.64784	0.0296385	0.0387998	-1.01814	-0.244772	-0.289815	2.1082	1.59333	0.0524674	0.043873
0.2	-0.21243	0.00524198	0.0238908	1.02048	1.04714	-0.33838	-0.129034	-0.0182175	-0.10602	-0.9236	-0.046152	0.0915429	0.0289867	0.859989	0.0727484	-0.171984	-0.483499	0.380722	0.0686156	-0.0460686	0.0235266	0.0199991	0.176135	-0.293074	-0.393338	-0.0773941	2.29874	1.63476	0.0296385	0.0387998	-1.01465	-0.23984	-0.306741	2.11282	1.59308	0.0524674	0.043873
0.21	-0.20662	0.00497876	0.0312985	1.02098	1.04579	-0.338639	-0.115421	-0.0177402	-0.0960021	-1.03629	-0.0392633	0.0915429	0.0289867	0.827201	0.0817521	-0.200575	-0.420115	0.389184	0.0686156	-0.0460686	0.0171035	0.0163114	0.167501	-0.322027	-0.390771	-0.103967	2.25581	1.62063	0.0296385	0.0387998	-1.00833	-0.236008	-0.321229	2.11562	1.59274	0.0524674	0.043873
0.22	-0.202542	0.00464848	0.0383857	1.02145	1.0434	-0.338896	-0.0964571	-0.0199236	-0.0918395	-1.14981	-0.0299153	0.0915429	0.0289867	0.797777	0.0888405	-0.227528	-0.376764	0.389871	0.0686156	-0.0460686	0.013393	0.0129852	0.157017	-0.351452	-0.38839	-0.131965	2.20484	1.60682	0.0296385	0.0387998	-0.999185	-0.23316	-0.33324	2.1165	1.59244	0.0524674	0.043873
0.23	-0.200218	0.00429007	0.0450411	1.02185	1.03998	-0.339152	-0.0720261	-0.0249381	-0.0926482	-1.26326	-0.016949	0.0915429	0.0289867	0.771937	0.0941011	-0.251358	-0.353196	0.382963	0.0686156	-0.0460686	0.0122207	0.00993715	0.144708	-0.380592	-0.386452	-0.160274	2.14621	1.59517	0.0296385	0.0387998	-0.987169	-0.231169	-0.342688	2.11531	1.59233	0.0524674	0.043873
0.24	-0.199624	0.00407135	0.051193	1.0221	1.03558	-0.339406	-0.0419176	-0.0329427	-0.0971501	-1.37557	0.000510971	0.0915429	0.0289867	0.74989	0.0978084	-0.270488	-0.34887	0.369513	0.0686156	-0.0460686	0.0132504	0.00691151	0.130577	-0.408569	-0.385168	-0.187661	2.08056	1.58754	0.0296385	0.0387998	-0.972095	-0.229947	-0.349441	2.11182	1.59249	0.0524674	0.043873
0.25	-0.200685	0.00432007	0.0568327	1.02211	1.03019	-0.339652	-0.00579972	-0.0440382	-0.103725	-1.48557	0.0227341	0.0915429	0.0289867	0.731781	0.100469	-0.283689	-0.362852	0.351869	0.0686156	-0.0460686	0.0159768	0.00345384	0.114623	-0.434541	-0.384638	-0.212995	2.00896	1.58524	0.0296385	0.0387998	-0.953615	-0.22948	-0.353333	2.10578	1.59292	0.0524674	0.043873
0.26	-0.203278	0.00550329	0.0620108	1.0218	1.02386	-0.339879	0.0367594	-0.0581982	-0.11052	-1.59201	0.0492274	0.0915429	0.0289867	0.717582	0.102811	-0.290375	-0.393635	0.333838	0.0686156	-0.0460686	0.0197592	-0.00103331	0.0968952	-0.457879	-0.384814	-0.235462	1.93304	1.58863	0.0296385	0.0387998	-0.931206	-0.229849	-0.354195	2.09694	1.59358	0.0524674	0.043873
0.27	-0.20723	0.00813831	0.0668085	1.02105	1.01673	-0.34007	0.0862117	-0.0751861	-0.115623	-1.69351	0.0788224	0.0915429	0.0289867	0.706928	0.105722	-0.290567	-0.438873	0.32032	0.0686156	-0.0460686	0.0238895	-0.00715039	0.0775593	-0.478328	-0.385502	-0.254704	1.85505	1.59695	0.0296385	0.0387998	-0.904208	-0.231193	-0.351886	2.08515	1.59447	0.0524674	0.043873
0.28	-0.212203	0.0126139	0.0712819	1.01981	1.00916	-0.340202	0.142903	-0.0944421	-0.117257	-1.7885	0.109936	0.0915429	0.0289867	0.698963	0.11007	-0.284816	-0.495122	0.316331	0.0686156	-0.0460686	0.0277126	-0.0153076	0.0569519	-0.496113	-0.386404	-0.27085	1.77781	1.60849	0.0296385	0.0387998	-0.871941	-0.233644	-0.346328	2.07045	1.59576	0.0524674	0.043873
0.29	-0.217863	0.0190338	0.0753833	1.01803	1.00176	-0.340247	0.206866	-0.114957	-0.113975	-1.8752	0.140921	0.0915429	0.0289867	0.692178	0.116491	-0.273946	-0.557746	0.325562	0.0686156	-0.0460686	0.0306446	-0.0254985	0.0355979	-0.51195	-0.387185	-0.284423	1.70458	1.62089	0.0296385	0.0387998	-0.833887	-0.23722	-0.337569	2.05323	1.59784	0.0524674	0.043873
0.3	-0.223816	0.0271077	0.0789253	1.01568	0.995143	-0.340192	0.277673	-0.135248	-0.104841	-1.95162	0.170365	0.0915429	0.0289867	0.68449	0.125117	-0.25905	-0.62121	0.349191	0.0686156	-0.0460686	0.032279	-0.0371802	0.0141982	-0.526945	-0.387565	-0.296138	1.63865	1.6315	0.0296385	0.0387998	-0.789933	-0.241711	-0.32586	2.03434	1.60123	0.0524674	0.043873
0.31	-0.229613	0.0361286	0.0815481	1.01279	0.989561	-0.340051	0.354325	-0.153478	-0.0895708	-2.01566	0.19727	0.0915429	0.0289867	0.673525	0.135428	-0.241571	-0.679782	0.385489	0.0686156	-0.0460686	0.032449	-0.0493257	-0.00645729	-0.542383	-0.387399	-0.306646	1.58306	1.63766	0.0296385	0.0387998	-0.740583	-0.246605	-0.311735	2.01517	1.60646	0.0524674	0.043873
0.32	-0.234851	0.0451113	0.0827826	1.00949	0.985107	-0.339851	0.435221	-0.167754	-0.0686197	-2.06531	0.221092	0.0915429	0.0289867	0.657015	0.146305	-0.223215	-0.728417	0.430305	0.0686156	-0.0460686	0.0312284	-0.0606176	-0.0256224	-0.559467	-0.38671	-0.316332	1.54012	1.63711	0.0296385	0.0387998	-0.687084	-0.251095	-0.296045	1.99767	1.61378	0.0524674	0.043873
0.33	-0.239176	0.0530352	0.0821609	1.00599	0.981927	-0.339608	0.518239	-0.176478	-0.0431983	-2.0988	0.241631	0.0915429	0.0289867	0.633206	0.156246	-0.205814	-0.763482	0.478063	0.0686156	-0.0460686	0.028922	-0.069701	-0.0427606	-0.579076	-0.385666	-0.325224	1.5111	1.62833	0.0296385	0.0387998	-0.631363	-0.254177	-0.27988	1.98415	1.62296	0.0524674	0.043873
0.34	-0.242291	0.0589278	0.0793698	1.00258	0.980226	-0.33931	0.600883	-0.178694	-0.0151835	-2.11484	0.258891	0.0915429	0.0289867	0.601097	0.163705	-0.191093	-0.783116	0.522747	0.0686156	-0.0460686	0.0259998	-0.0754827	-0.0576492	-0.601639	-0.384492	-0.333088	1.49613	1.61091	0.0296385	0.0387998	-0.575784	-0.254839	-0.264369	1.97697	1.63311	0.0524674	0.043873
0.35	-0.243984	0.0620725	0.0743874	0.999559	0.980141	-0.338959	0.680492	-0.174255	0.0130701	-2.11266	0.272928	0.0915429	0.0289867	0.560487	0.167362	-0.180422	-0.787186	0.558601	0.0686156	-0.0460686	0.0229976	-0.0772339	-0.0703962	-0.627134	-0.383351	-0.33964	1.4942	1.5856	0.0296385	0.0387998	-0.522764	-0.252284	-0.25041	1.97808	1.64278	0.0524674	0.043873
0.36	-0.244223	0.0620494	0.0675014	0.997151	0.981682	-0.338586	0.754459	-0.163813	0.0390309	-2.09207	0.283758	0.0915429	0.0289867	0.51187	0.166334	-0.174639	-0.776969	0.580595	0.0686156	-0.0460686	0.0203984	-0.0746447	-0.0813508	-0.65522	-0.382241	-0.344791	1.50352	1.55416	0.0296385	0.0387998	-0.474378	-0.246113	-0.238424	1.9887	1.65019	0.0524674	0.043873
0.37	-0.243135	0.0587983	0.0592464	0.995516	0.984761	-0.338225	0.820495	-0.148681	0.0603364	-2.05342	0.291393	0.0915429	0.0289867	0.456286	0.160271	-0.174004	-0.7547	0.584757	0.0686156	-0.0460686	0.0186025	-0.0678133	-0.0909371	-0.685417	-0.380951	-0.348789	1.52178	1.51888	0.0296385	0.0387998	-0.43208	-0.236424	-0.228241	2.00904	1.65362	0.0524674	0.043873
0.38	-0.240974	0.0526406	0.050266	0.994751	0.989232	-0.337903	0.876858	-0.13062	0.0751329	-1.99753	0.295937	0.0915429	0.0289867	0.395187	0.149399	-0.178251	-0.723136	0.568546	0.0686156	-0.0460686	0.0179468	-0.0572401	-0.0994895	-0.717246	-0.379085	-0.352203	1.54658	1.48198	0.0296385	0.0387998	-0.39661	-0.223798	-0.219169	2.03834	1.65191	0.0524674	0.043873
0.39	-0.238151	0.0442454	0.0411607	0.994878	0.994877	-0.337635	0.922511	-0.111586	0.0823279	-1.92555	0.297675	0.0915429	0.0289867	0.330321	0.134522	-0.186629	-0.685236	0.531171	0.0686156	-0.0460686	0.0187132	-0.0438175	-0.107159	-0.750307	-0.376157	-0.355767	1.57569	1.44522	0.0296385	0.0387998	-0.368079	-0.209198	-0.21021	2.0751	1.64473	0.0524674	0.043873
0.4	-0.235096	0.0345447	0.0324045	0.995849	1.0014	-0.337428	0.95719	-0.0934658	0.0816772	-1.83895	0.297112	0.0915429	0.0289867	0.263684	0.116954	-0.197922	-0.643967	0.473827	0.0686156	-0.0460686	0.0211729	-0.0287726	-0.113914	-0.784256	-0.371716	-0.360173	1.60724	1.40962	0.0296385	0.0387998	-0.346167	-0.193811	-0.200313	2.1174	1.63269	0.0524674	0.043873
0.41	-0.2323	0.0247393	0.0243481	0.997541	1.00846	-0.337302	0.981301	-0.0778302	0.0737013	-1.73935	0.294906	0.0915429	0.0289867	0.197431	0.0983471	-0.210418	-0.602291	0.399766	0.0686156	-0.0460686	0.0255083	-0.0134723	-0.119612	-0.818731	-0.365461	-0.365889	1.63979	1.37555	0.0296385	0.0387998	-0.330326	-0.178882	-0.188605	2.16319	1.61726	0.0524674	0.043873
